<mxfile host="Electron" agent="Mozilla/5.0 (Windows NT 10.0; Win64; x64) AppleWebKit/537.36 (KHTML, like Gecko) draw.io/28.0.6 Chrome/138.0.7204.100 Electron/37.2.3 Safari/537.36" version="28.0.6">
  <diagram name="Страница — 1" id="pgSoBSzNcnjz_RUL23Q5">
    <mxGraphModel dx="1884" dy="1115" grid="1" gridSize="10" guides="1" tooltips="1" connect="1" arrows="1" fold="1" page="1" pageScale="1" pageWidth="827" pageHeight="1169" math="0" shadow="0">
      <root>
        <mxCell id="0" />
        <mxCell id="1" parent="0" />
        <mxCell id="gyZnTWZKLgBVte_kdoAI-3" value="&lt;font style=&quot;font-size: 21px;&quot;&gt;Управление расписанием мастеров (BP01) — Владелец: Менеджер. Результат:&amp;nbsp;&amp;nbsp;Обновленное расписание мастеров, доступное для онлайн-записи&lt;/font&gt;" style="text;html=1;align=center;verticalAlign=middle;resizable=0;points=[];autosize=1;strokeColor=none;fillColor=none;" parent="1" vertex="1">
          <mxGeometry x="-630" y="10" width="1470" height="40" as="geometry" />
        </mxCell>
        <mxCell id="gyZnTWZKLgBVte_kdoAI-4" value="&lt;span style=&quot;text-wrap-mode: nowrap; font-weight: normal;&quot;&gt;&lt;font style=&quot;font-size: 15px;&quot;&gt;Управление расписанием мастеров&lt;/font&gt;&lt;/span&gt;" style="swimlane;html=1;childLayout=stackLayout;resizeParent=1;resizeParentMax=0;horizontal=0;startSize=20;horizontalStack=0;whiteSpace=wrap;" parent="1" vertex="1">
          <mxGeometry x="-800" y="80" width="1810" height="490" as="geometry" />
        </mxCell>
        <mxCell id="gyZnTWZKLgBVte_kdoAI-5" value="Клиент" style="swimlane;html=1;startSize=20;horizontal=0;" parent="gyZnTWZKLgBVte_kdoAI-4" vertex="1">
          <mxGeometry x="20" width="1790" height="120" as="geometry" />
        </mxCell>
        <mxCell id="gyZnTWZKLgBVte_kdoAI-11" value="Запись клиента" style="whiteSpace=wrap;html=1;" parent="gyZnTWZKLgBVte_kdoAI-5" vertex="1">
          <mxGeometry x="72.5" y="20" width="90" height="60" as="geometry" />
        </mxCell>
        <mxCell id="wgD_21ILpuJ7Zoqgytha-12" value="" style="points=[[0.145,0.145,0],[0.5,0,0],[0.855,0.145,0],[1,0.5,0],[0.855,0.855,0],[0.5,1,0],[0.145,0.855,0],[0,0.5,0]];shape=mxgraph.bpmn.event;html=1;verticalLabelPosition=bottom;labelBackgroundColor=#ffffff;verticalAlign=top;align=center;perimeter=ellipsePerimeter;outlineConnect=0;aspect=fixed;outline=throwing;symbol=general;" parent="gyZnTWZKLgBVte_kdoAI-5" vertex="1">
          <mxGeometry x="710" y="10" width="50" height="50" as="geometry" />
        </mxCell>
        <mxCell id="wgD_21ILpuJ7Zoqgytha-13" value="Форс-мажор" style="text;html=1;align=center;verticalAlign=middle;resizable=0;points=[];autosize=1;strokeColor=none;fillColor=none;" parent="gyZnTWZKLgBVte_kdoAI-5" vertex="1">
          <mxGeometry x="620" y="20" width="90" height="30" as="geometry" />
        </mxCell>
        <mxCell id="gyZnTWZKLgBVte_kdoAI-13" style="edgeStyle=orthogonalEdgeStyle;rounded=0;orthogonalLoop=1;jettySize=auto;html=1;exitX=0.5;exitY=1;exitDx=0;exitDy=0;entryX=0.5;entryY=0;entryDx=0;entryDy=0;entryPerimeter=0;dashed=1;dashPattern=8 8;" parent="gyZnTWZKLgBVte_kdoAI-4" source="gyZnTWZKLgBVte_kdoAI-11" target="gyZnTWZKLgBVte_kdoAI-10" edge="1">
          <mxGeometry relative="1" as="geometry" />
        </mxCell>
        <mxCell id="gyZnTWZKLgBVte_kdoAI-6" value="&lt;span style=&quot;white-space: pre;&quot;&gt;&#x9;&lt;/span&gt;&lt;span style=&quot;white-space: pre;&quot;&gt;&#x9;&lt;/span&gt;&lt;span style=&quot;white-space: pre;&quot;&gt;&#x9;&lt;/span&gt;&lt;span style=&quot;white-space: pre;&quot;&gt;&#x9;&lt;/span&gt;&lt;span style=&quot;white-space: pre;&quot;&gt;&#x9;&lt;/span&gt;&lt;span style=&quot;white-space: pre;&quot;&gt;&#x9;&lt;/span&gt;Менеджер" style="swimlane;html=1;startSize=20;horizontal=0;" parent="gyZnTWZKLgBVte_kdoAI-4" vertex="1">
          <mxGeometry x="20" y="120" width="1790" height="370" as="geometry" />
        </mxCell>
        <mxCell id="gyZnTWZKLgBVte_kdoAI-10" value="" style="points=[[0.145,0.145,0],[0.5,0,0],[0.855,0.145,0],[1,0.5,0],[0.855,0.855,0],[0.5,1,0],[0.145,0.855,0],[0,0.5,0]];shape=mxgraph.bpmn.event;html=1;verticalLabelPosition=bottom;labelBackgroundColor=#ffffff;verticalAlign=top;align=center;perimeter=ellipsePerimeter;outlineConnect=0;aspect=fixed;outline=standard;symbol=general;" parent="gyZnTWZKLgBVte_kdoAI-6" vertex="1">
          <mxGeometry x="100" y="42.5" width="35" height="35" as="geometry" />
        </mxCell>
        <mxCell id="gyZnTWZKLgBVte_kdoAI-15" value="Обновление&amp;nbsp;&lt;div&gt;расписания&lt;/div&gt;" style="text;html=1;align=center;verticalAlign=middle;resizable=0;points=[];autosize=1;strokeColor=none;fillColor=none;" parent="gyZnTWZKLgBVte_kdoAI-6" vertex="1">
          <mxGeometry x="10" y="40" width="100" height="40" as="geometry" />
        </mxCell>
        <mxCell id="gyZnTWZKLgBVte_kdoAI-16" value="Менеджер формирует или обновляет расписание мастеров" style="points=[[0.25,0,0],[0.5,0,0],[0.75,0,0],[1,0.25,0],[1,0.5,0],[1,0.75,0],[0.75,1,0],[0.5,1,0],[0.25,1,0],[0,0.75,0],[0,0.5,0],[0,0.25,0]];shape=mxgraph.bpmn.task2;whiteSpace=wrap;rectStyle=rounded;size=10;html=1;container=1;expand=0;collapsible=0;taskMarker=abstract;" parent="gyZnTWZKLgBVte_kdoAI-6" vertex="1">
          <mxGeometry x="220" y="20" width="120" height="80" as="geometry" />
        </mxCell>
        <mxCell id="gyZnTWZKLgBVte_kdoAI-17" value="Вводит услуги, время работы и свободные интервалы" style="points=[[0.25,0,0],[0.5,0,0],[0.75,0,0],[1,0.25,0],[1,0.5,0],[1,0.75,0],[0.75,1,0],[0.5,1,0],[0.25,1,0],[0,0.75,0],[0,0.5,0],[0,0.25,0]];shape=mxgraph.bpmn.task2;whiteSpace=wrap;rectStyle=rounded;size=10;html=1;container=1;expand=0;collapsible=0;taskMarker=abstract;" parent="gyZnTWZKLgBVte_kdoAI-6" vertex="1">
          <mxGeometry x="380" y="20" width="120" height="80" as="geometry" />
        </mxCell>
        <mxCell id="gyZnTWZKLgBVte_kdoAI-18" value="Система проверяет корректность расписания" style="points=[[0.25,0,0],[0.5,0,0],[0.75,0,0],[1,0.25,0],[1,0.5,0],[1,0.75,0],[0.75,1,0],[0.5,1,0],[0.25,1,0],[0,0.75,0],[0,0.5,0],[0,0.25,0]];shape=mxgraph.bpmn.task2;whiteSpace=wrap;rectStyle=rounded;size=10;html=1;container=1;expand=0;collapsible=0;taskMarker=abstract;" parent="gyZnTWZKLgBVte_kdoAI-6" vertex="1">
          <mxGeometry x="540" y="20" width="120" height="80" as="geometry" />
        </mxCell>
        <mxCell id="gyZnTWZKLgBVte_kdoAI-19" style="edgeStyle=orthogonalEdgeStyle;rounded=0;orthogonalLoop=1;jettySize=auto;html=1;exitX=1;exitY=0.5;exitDx=0;exitDy=0;exitPerimeter=0;entryX=0;entryY=0.5;entryDx=0;entryDy=0;entryPerimeter=0;" parent="gyZnTWZKLgBVte_kdoAI-6" source="gyZnTWZKLgBVte_kdoAI-10" target="gyZnTWZKLgBVte_kdoAI-16" edge="1">
          <mxGeometry relative="1" as="geometry" />
        </mxCell>
        <mxCell id="gyZnTWZKLgBVte_kdoAI-20" style="edgeStyle=orthogonalEdgeStyle;rounded=0;orthogonalLoop=1;jettySize=auto;html=1;exitX=1;exitY=0.5;exitDx=0;exitDy=0;exitPerimeter=0;entryX=0;entryY=0.5;entryDx=0;entryDy=0;entryPerimeter=0;" parent="gyZnTWZKLgBVte_kdoAI-6" source="gyZnTWZKLgBVte_kdoAI-16" target="gyZnTWZKLgBVte_kdoAI-17" edge="1">
          <mxGeometry relative="1" as="geometry" />
        </mxCell>
        <mxCell id="gyZnTWZKLgBVte_kdoAI-21" style="edgeStyle=orthogonalEdgeStyle;rounded=0;orthogonalLoop=1;jettySize=auto;html=1;exitX=1;exitY=0.5;exitDx=0;exitDy=0;exitPerimeter=0;entryX=0;entryY=0.5;entryDx=0;entryDy=0;entryPerimeter=0;" parent="gyZnTWZKLgBVte_kdoAI-6" source="gyZnTWZKLgBVte_kdoAI-17" target="gyZnTWZKLgBVte_kdoAI-18" edge="1">
          <mxGeometry relative="1" as="geometry" />
        </mxCell>
        <mxCell id="gyZnTWZKLgBVte_kdoAI-25" style="edgeStyle=orthogonalEdgeStyle;rounded=0;orthogonalLoop=1;jettySize=auto;html=1;exitX=1;exitY=0.5;exitDx=0;exitDy=0;exitPerimeter=0;" parent="gyZnTWZKLgBVte_kdoAI-6" edge="1">
          <mxGeometry relative="1" as="geometry">
            <mxPoint x="820" y="60.16666666666674" as="targetPoint" />
            <mxPoint x="760" y="60" as="sourcePoint" />
          </mxGeometry>
        </mxCell>
        <mxCell id="gyZnTWZKLgBVte_kdoAI-23" value="Расписание корректно ?" style="text;html=1;align=center;verticalAlign=middle;resizable=0;points=[];autosize=1;strokeColor=none;fillColor=none;" parent="gyZnTWZKLgBVte_kdoAI-6" vertex="1">
          <mxGeometry x="730" width="160" height="30" as="geometry" />
        </mxCell>
        <mxCell id="gyZnTWZKLgBVte_kdoAI-24" style="edgeStyle=orthogonalEdgeStyle;rounded=0;orthogonalLoop=1;jettySize=auto;html=1;exitX=1;exitY=0.5;exitDx=0;exitDy=0;exitPerimeter=0;entryX=0;entryY=0.5;entryDx=0;entryDy=0;entryPerimeter=0;" parent="gyZnTWZKLgBVte_kdoAI-6" source="gyZnTWZKLgBVte_kdoAI-18" edge="1">
          <mxGeometry relative="1" as="geometry">
            <mxPoint x="710" y="60" as="targetPoint" />
          </mxGeometry>
        </mxCell>
        <mxCell id="gyZnTWZKLgBVte_kdoAI-7" value="Мастер" style="swimlane;html=1;startSize=20;horizontal=0;" parent="gyZnTWZKLgBVte_kdoAI-6" vertex="1">
          <mxGeometry y="240" width="1790" height="130" as="geometry">
            <mxRectangle x="20" y="240" width="740" height="30" as="alternateBounds" />
          </mxGeometry>
        </mxCell>
        <mxCell id="gyZnTWZKLgBVte_kdoAI-12" value="Данные от&amp;nbsp; мастера" style="whiteSpace=wrap;html=1;" parent="gyZnTWZKLgBVte_kdoAI-7" vertex="1">
          <mxGeometry x="72.5" y="20" width="90" height="60" as="geometry" />
        </mxCell>
        <mxCell id="wgD_21ILpuJ7Zoqgytha-4" value="" style="points=[[0.145,0.145,0],[0.5,0,0],[0.855,0.145,0],[1,0.5,0],[0.855,0.855,0],[0.5,1,0],[0.145,0.855,0],[0,0.5,0]];shape=mxgraph.bpmn.event;html=1;verticalLabelPosition=bottom;labelBackgroundColor=#ffffff;verticalAlign=top;align=center;perimeter=ellipsePerimeter;outlineConnect=0;aspect=fixed;outline=throwing;symbol=general;" parent="gyZnTWZKLgBVte_kdoAI-7" vertex="1">
          <mxGeometry x="710" y="20" width="50" height="50" as="geometry" />
        </mxCell>
        <mxCell id="wgD_21ILpuJ7Zoqgytha-5" value="Форс-мажор" style="text;html=1;align=center;verticalAlign=middle;resizable=0;points=[];autosize=1;strokeColor=none;fillColor=none;" parent="gyZnTWZKLgBVte_kdoAI-7" vertex="1">
          <mxGeometry x="610" y="35" width="90" height="30" as="geometry" />
        </mxCell>
        <mxCell id="gyZnTWZKLgBVte_kdoAI-14" style="edgeStyle=orthogonalEdgeStyle;rounded=0;orthogonalLoop=1;jettySize=auto;html=1;exitX=0.5;exitY=0;exitDx=0;exitDy=0;entryX=0.5;entryY=1;entryDx=0;entryDy=0;entryPerimeter=0;dashed=1;dashPattern=8 8;" parent="gyZnTWZKLgBVte_kdoAI-6" source="gyZnTWZKLgBVte_kdoAI-12" target="gyZnTWZKLgBVte_kdoAI-10" edge="1">
          <mxGeometry relative="1" as="geometry" />
        </mxCell>
        <mxCell id="gyZnTWZKLgBVte_kdoAI-29" value="Система публикует расписание для клиентов и мастера" style="points=[[0.25,0,0],[0.5,0,0],[0.75,0,0],[1,0.25,0],[1,0.5,0],[1,0.75,0],[0.75,1,0],[0.5,1,0],[0.25,1,0],[0,0.75,0],[0,0.5,0],[0,0.25,0]];shape=mxgraph.bpmn.task2;whiteSpace=wrap;rectStyle=rounded;size=10;html=1;container=1;expand=0;collapsible=0;taskMarker=abstract;" parent="gyZnTWZKLgBVte_kdoAI-6" vertex="1">
          <mxGeometry x="820" y="20" width="120" height="80" as="geometry" />
        </mxCell>
        <mxCell id="gyZnTWZKLgBVte_kdoAI-34" style="edgeStyle=orthogonalEdgeStyle;rounded=0;orthogonalLoop=1;jettySize=auto;html=1;exitX=1;exitY=0.5;exitDx=0;exitDy=0;exitPerimeter=0;entryX=0.5;entryY=1;entryDx=0;entryDy=0;entryPerimeter=0;" parent="gyZnTWZKLgBVte_kdoAI-6" source="gyZnTWZKLgBVte_kdoAI-30" target="gyZnTWZKLgBVte_kdoAI-29" edge="1">
          <mxGeometry relative="1" as="geometry">
            <mxPoint x="890" y="110" as="targetPoint" />
          </mxGeometry>
        </mxCell>
        <mxCell id="gyZnTWZKLgBVte_kdoAI-30" value="Менеджер исправляет вручную" style="points=[[0.25,0,0],[0.5,0,0],[0.75,0,0],[1,0.25,0],[1,0.5,0],[1,0.75,0],[0.75,1,0],[0.5,1,0],[0.25,1,0],[0,0.75,0],[0,0.5,0],[0,0.25,0]];shape=mxgraph.bpmn.task2;whiteSpace=wrap;rectStyle=rounded;size=10;html=1;container=1;expand=0;collapsible=0;taskMarker=abstract;" parent="gyZnTWZKLgBVte_kdoAI-6" vertex="1">
          <mxGeometry x="675" y="130" width="120" height="80" as="geometry" />
        </mxCell>
        <mxCell id="gyZnTWZKLgBVte_kdoAI-31" style="edgeStyle=orthogonalEdgeStyle;rounded=0;orthogonalLoop=1;jettySize=auto;html=1;exitX=0.5;exitY=1;exitDx=0;exitDy=0;exitPerimeter=0;entryX=0.5;entryY=0;entryDx=0;entryDy=0;entryPerimeter=0;" parent="gyZnTWZKLgBVte_kdoAI-6" target="gyZnTWZKLgBVte_kdoAI-30" edge="1">
          <mxGeometry relative="1" as="geometry">
            <mxPoint x="735" y="85" as="sourcePoint" />
          </mxGeometry>
        </mxCell>
        <mxCell id="gyZnTWZKLgBVte_kdoAI-32" value="Да" style="text;html=1;align=center;verticalAlign=middle;resizable=0;points=[];autosize=1;strokeColor=none;fillColor=none;" parent="gyZnTWZKLgBVte_kdoAI-6" vertex="1">
          <mxGeometry x="770" y="35" width="40" height="30" as="geometry" />
        </mxCell>
        <mxCell id="gyZnTWZKLgBVte_kdoAI-35" value="Автоматически синхронизирует расписание с онлайн-записью" style="points=[[0.25,0,0],[0.5,0,0],[0.75,0,0],[1,0.25,0],[1,0.5,0],[1,0.75,0],[0.75,1,0],[0.5,1,0],[0.25,1,0],[0,0.75,0],[0,0.5,0],[0,0.25,0]];shape=mxgraph.bpmn.task2;whiteSpace=wrap;rectStyle=rounded;size=10;html=1;container=1;expand=0;collapsible=0;taskMarker=abstract;" parent="gyZnTWZKLgBVte_kdoAI-6" vertex="1">
          <mxGeometry x="1010" y="20" width="120" height="80" as="geometry" />
        </mxCell>
        <mxCell id="gyZnTWZKLgBVte_kdoAI-36" style="edgeStyle=orthogonalEdgeStyle;rounded=0;orthogonalLoop=1;jettySize=auto;html=1;exitX=1;exitY=0.5;exitDx=0;exitDy=0;exitPerimeter=0;entryX=0;entryY=0.5;entryDx=0;entryDy=0;entryPerimeter=0;" parent="gyZnTWZKLgBVte_kdoAI-6" source="gyZnTWZKLgBVte_kdoAI-29" target="gyZnTWZKLgBVte_kdoAI-35" edge="1">
          <mxGeometry relative="1" as="geometry" />
        </mxCell>
        <mxCell id="wgD_21ILpuJ7Zoqgytha-1" value="" style="points=[[0.145,0.145,0],[0.5,0,0],[0.855,0.145,0],[1,0.5,0],[0.855,0.855,0],[0.5,1,0],[0.145,0.855,0],[0,0.5,0]];shape=mxgraph.bpmn.event;html=1;verticalLabelPosition=bottom;labelBackgroundColor=#ffffff;verticalAlign=top;align=center;perimeter=ellipsePerimeter;outlineConnect=0;aspect=fixed;outline=end;symbol=terminate2;" parent="gyZnTWZKLgBVte_kdoAI-6" vertex="1">
          <mxGeometry x="1420" y="42.5" width="35" height="35" as="geometry" />
        </mxCell>
        <mxCell id="wgD_21ILpuJ7Zoqgytha-2" value="&lt;font&gt;Актуальное расписание опубликовано,&amp;nbsp;&lt;/font&gt;&lt;div&gt;&lt;font&gt;доступно клиентам и мастерам&lt;/font&gt;&lt;/div&gt;" style="text;html=1;align=center;verticalAlign=middle;resizable=0;points=[];autosize=1;strokeColor=none;fillColor=none;" parent="gyZnTWZKLgBVte_kdoAI-6" vertex="1">
          <mxGeometry x="1470" y="40" width="240" height="40" as="geometry" />
        </mxCell>
        <mxCell id="wgD_21ILpuJ7Zoqgytha-7" value="Система уведомляет клиентов и мастера об изменениях" style="points=[[0.25,0,0],[0.5,0,0],[0.75,0,0],[1,0.25,0],[1,0.5,0],[1,0.75,0],[0.75,1,0],[0.5,1,0],[0.25,1,0],[0,0.75,0],[0,0.5,0],[0,0.25,0]];shape=mxgraph.bpmn.task2;whiteSpace=wrap;rectStyle=rounded;size=10;html=1;container=1;expand=0;collapsible=0;taskMarker=abstract;" parent="gyZnTWZKLgBVte_kdoAI-6" vertex="1">
          <mxGeometry x="1220" y="20" width="120" height="80" as="geometry" />
        </mxCell>
        <mxCell id="wgD_21ILpuJ7Zoqgytha-10" style="edgeStyle=orthogonalEdgeStyle;rounded=0;orthogonalLoop=1;jettySize=auto;html=1;exitX=1;exitY=0.5;exitDx=0;exitDy=0;exitPerimeter=0;entryX=0;entryY=0.5;entryDx=0;entryDy=0;entryPerimeter=0;" parent="gyZnTWZKLgBVte_kdoAI-6" source="gyZnTWZKLgBVte_kdoAI-35" target="wgD_21ILpuJ7Zoqgytha-7" edge="1">
          <mxGeometry relative="1" as="geometry" />
        </mxCell>
        <mxCell id="wgD_21ILpuJ7Zoqgytha-18" style="edgeStyle=orthogonalEdgeStyle;rounded=0;orthogonalLoop=1;jettySize=auto;html=1;exitX=1;exitY=0.5;exitDx=0;exitDy=0;exitPerimeter=0;entryX=0;entryY=0.5;entryDx=0;entryDy=0;entryPerimeter=0;" parent="gyZnTWZKLgBVte_kdoAI-6" source="wgD_21ILpuJ7Zoqgytha-7" target="wgD_21ILpuJ7Zoqgytha-1" edge="1">
          <mxGeometry relative="1" as="geometry" />
        </mxCell>
        <mxCell id="gyZnTWZKLgBVte_kdoAI-33" value="Нет" style="text;html=1;align=center;verticalAlign=middle;resizable=0;points=[];autosize=1;strokeColor=none;fillColor=none;" parent="gyZnTWZKLgBVte_kdoAI-6" vertex="1">
          <mxGeometry x="730" y="85" width="40" height="30" as="geometry" />
        </mxCell>
        <mxCell id="cbAG75p9YBqCEoqb5tsO-1" value="" style="points=[[0.25,0.25,0],[0.5,0,0],[0.75,0.25,0],[1,0.5,0],[0.75,0.75,0],[0.5,1,0],[0.25,0.75,0],[0,0.5,0]];shape=mxgraph.bpmn.gateway2;html=1;verticalLabelPosition=bottom;labelBackgroundColor=#ffffff;verticalAlign=top;align=center;perimeter=rhombusPerimeter;outlineConnect=0;outline=none;symbol=none;gwType=parallel;" parent="gyZnTWZKLgBVte_kdoAI-6" vertex="1">
          <mxGeometry x="710" y="35" width="50" height="50" as="geometry" />
        </mxCell>
        <mxCell id="cbAG75p9YBqCEoqb5tsO-2" style="edgeStyle=orthogonalEdgeStyle;rounded=0;orthogonalLoop=1;jettySize=auto;html=1;exitX=0.5;exitY=0;exitDx=0;exitDy=0;exitPerimeter=0;entryX=0.5;entryY=1;entryDx=0;entryDy=0;entryPerimeter=0;" parent="gyZnTWZKLgBVte_kdoAI-6" source="wgD_21ILpuJ7Zoqgytha-4" target="gyZnTWZKLgBVte_kdoAI-30" edge="1">
          <mxGeometry relative="1" as="geometry" />
        </mxCell>
        <mxCell id="cbAG75p9YBqCEoqb5tsO-4" style="edgeStyle=orthogonalEdgeStyle;rounded=0;orthogonalLoop=1;jettySize=auto;html=1;exitX=0.5;exitY=1;exitDx=0;exitDy=0;exitPerimeter=0;" parent="gyZnTWZKLgBVte_kdoAI-4" source="wgD_21ILpuJ7Zoqgytha-12" target="cbAG75p9YBqCEoqb5tsO-1" edge="1">
          <mxGeometry relative="1" as="geometry" />
        </mxCell>
      </root>
    </mxGraphModel>
  </diagram>
</mxfile>
